<svg id="图层_1" data-name="图层 1" xmlns="http://www.w3.org/2000/svg" viewBox="0 0 298.68 63.1"><path d="M106.79.59,84.22,40.92,78.26.59H62.12l10,61.92h15.7L123.54.59ZM35.68.59,0,62.51H16.75l4.92-8.79H44l1.3,8.79H61.42L51.39.59Zm-7.22,41,10.85-19.4,2.87,19.4ZM153,0c-16.85,0-33,14.13-36.08,31.55s8.1,31.55,25,31.55,33-14.12,36.07-31.55S169.81,0,153,0Zm9.9,31.55c-1.61,9.1-9.85,16.51-18.38,16.51s-14.16-7.41-12.55-16.51S141.79,15,150.31,15,164.47,22.45,162.87,31.55ZM273.22,0c-16.85,0-33,14.13-36.07,31.55s8.1,31.55,25,31.55,33-14.12,36.07-31.55S290.07,0,273.22,0Zm9.9,31.55c-1.6,9.1-9.84,16.51-18.37,16.51s-14.16-7.41-12.55-16.51S262,15,270.57,15,284.73,22.45,283.12,31.55ZM247.53.59H227.77L202,24,206.11.59H190.58L179.66,62.51H195.2l3.14-17.81,6.89-6.19,15.34,24h17.54L216.94,28Z"/></svg>